<svg width="33" height="29" viewBox="0 0 33 29" fill="none" xmlns="http://www.w3.org/2000/svg">
<path d="M29.9062 0H21.6562C19.9482 0 18.5625 1.39174 18.5625 3.10714V11.3929C18.5625 13.1083 19.9482 14.5 21.6562 14.5H26.8125V18.6429C26.8125 20.9279 24.9627 22.7857 22.6875 22.7857H22.1719C21.3146 22.7857 20.625 23.4783 20.625 24.3393V27.4464C20.625 28.3074 21.3146 29 22.1719 29H22.6875C28.3852 29 33 24.3652 33 18.6429V3.10714C33 1.39174 31.6143 0 29.9062 0ZM11.3438 0H3.09375C1.38574 0 0 1.39174 0 3.10714V11.3929C0 13.1083 1.38574 14.5 3.09375 14.5H8.25V18.6429C8.25 20.9279 6.4002 22.7857 4.125 22.7857H3.60938C2.75215 22.7857 2.0625 23.4783 2.0625 24.3393V27.4464C2.0625 28.3074 2.75215 29 3.60938 29H4.125C9.82266 29 14.4375 24.3652 14.4375 18.6429V3.10714C14.4375 1.39174 13.0518 0 11.3438 0Z" fill="#3EB691"/>
</svg>
